<?xml version="1.0" encoding="UTF-8" standalone="no"?>
<!-- Created with Inkscape (http://www.inkscape.org/) -->

<svg
   xmlns:dc="http://purl.org/dc/elements/1.1/"
   xmlns:cc="http://creativecommons.org/ns#"
   xmlns:rdf="http://www.w3.org/1999/02/22-rdf-syntax-ns#"
   xmlns:svg="http://www.w3.org/2000/svg"
   xmlns="http://www.w3.org/2000/svg"
   xmlns:sodipodi="http://sodipodi.sourceforge.net/DTD/sodipodi-0.dtd"
   xmlns:inkscape="http://www.inkscape.org/namespaces/inkscape"
   width="60"
   height="60"
   viewBox="0 0 15.875001 15.875"
   version="1.1"
   id="svg8"
   sodipodi:docname="contato.svg"
   inkscape:version="0.92.3 (2405546, 2018-03-11)">
  <defs
     id="defs2" />
  <sodipodi:namedview
     id="base"
     pagecolor="#ffffff"
     bordercolor="#666666"
     borderopacity="1.0"
     inkscape:pageopacity="0.0"
     inkscape:pageshadow="2"
     inkscape:zoom="9.4333333"
     inkscape:cx="30"
     inkscape:cy="30"
     inkscape:document-units="mm"
     inkscape:current-layer="layer1"
     showgrid="false"
     units="px"
     inkscape:window-width="1366"
     inkscape:window-height="741"
     inkscape:window-x="0"
     inkscape:window-y="0"
     inkscape:window-maximized="1"
     showguides="true"
     inkscape:guide-bbox="true"
     inkscape:pagecheckerboard="true"
     inkscape:snap-global="false" />
  <metadata
     id="metadata5">
    <rdf:RDF>
      <cc:Work
         rdf:about="">
        <dc:format>image/svg+xml</dc:format>
        <dc:type
           rdf:resource="http://purl.org/dc/dcmitype/StillImage" />
        <dc:title></dc:title>
      </cc:Work>
    </rdf:RDF>
  </metadata>
  <g
     inkscape:label="Camada 1"
     inkscape:groupmode="layer"
     id="layer1"
     transform="translate(0,-281.12498)">
    <path
       style="opacity:1;vector-effect:none;fill:none;fill-opacity:1;stroke:#000000;stroke-width:1.32291663;stroke-linecap:square;stroke-linejoin:round;stroke-miterlimit:4;stroke-dasharray:none;stroke-dashoffset:0;stroke-opacity:1;paint-order:fill markers stroke"
       id="path958"
       sodipodi:type="arc"
       sodipodi:cx="100.99167"
       sodipodi:cy="-270.9639"
       sodipodi:rx="6.6145835"
       sodipodi:ry="6.6145835"
       sodipodi:start="0"
       sodipodi:end="5.4977871"
       d="m 107.60625,-270.9639 a 6.6145835,6.6145835 0 0 1 -5.32414,6.48749 6.6145835,6.6145835 0 0 1 -7.40152,-3.9562 6.6145835,6.6145835 0 0 1 2.436213,-8.03111 6.6145835,6.6145835 0 0 1 8.352087,0.82261"
       sodipodi:open="true"
       transform="rotate(157.98573)" />
    <path
       style="fill:#000000;stroke-width:0.06614583"
       d="m 9.3802786,292.50403 c -1.818894,-0.51088 -3.3654275,-1.66104 -4.4354751,-3.29868 -0.5014219,-0.76739 -0.6374963,-1.1694 -0.6416935,-1.89575 -0.00425,-0.73494 0.091367,-0.97109 0.5891926,-1.45521 0.2942136,-0.28611 0.321359,-0.29756 0.6999462,-0.29533 0.2574266,0.002 0.4257072,0.0359 0.485793,0.0992 0.093808,0.0989 0.8341975,1.73867 0.8341975,1.84755 0,0.033 -0.1637109,0.24764 -0.363802,0.47707 -0.2000912,0.22943 -0.3638021,0.44996 -0.3638021,0.49006 0,0.17537 0.5472619,0.89254 1.011004,1.32489 0.5216578,0.48634 1.4161055,1.01749 1.7134469,1.01749 0.1150461,0 0.2598354,-0.1251 0.5359003,-0.46302 0.2080451,-0.25466 0.4203422,-0.46302 0.4717712,-0.46302 0.1750394,0 1.7700744,0.76019 1.8304734,0.87239 0.09415,0.17491 -0.05872,0.74589 -0.293177,1.09504 -0.392504,0.5845 -1.294714,0.86612 -2.0737754,0.64731 z"
       id="path947"
       inkscape:connector-curvature="0"
       sodipodi:nodetypes="ccccccssscssscccc" />
    <path
       style="fill:none;stroke:#000000;stroke-width:1.32291663;stroke-linecap:butt;stroke-linejoin:miter;stroke-miterlimit:4;stroke-dasharray:none;stroke-opacity:1"
       d="m 2.0269941,291.7344 -1.08242313,4.31678 4.24955663,-1.12083"
       id="path965"
       inkscape:connector-curvature="0"
       sodipodi:nodetypes="ccc" />
    <path
       style="fill:none;stroke:#000000;stroke-width:0.5291667;stroke-linecap:butt;stroke-linejoin:miter;stroke-miterlimit:4;stroke-dasharray:none;stroke-opacity:1"
       d="m 10.461793,291.41849 1.189858,0.80754 -0.457265,0.97267 1.202699,0.71603"
       id="path967"
       inkscape:connector-curvature="0"
       sodipodi:nodetypes="cccc" />
  </g>
</svg>
