<?xml version="1.0" encoding="UTF-8" standalone="no"?>
<!-- Created with Inkscape (http://www.inkscape.org/) -->

<svg
   xmlns:dc="http://purl.org/dc/elements/1.1/"
   xmlns:cc="http://creativecommons.org/ns#"
   xmlns:rdf="http://www.w3.org/1999/02/22-rdf-syntax-ns#"
   xmlns:svg="http://www.w3.org/2000/svg"
   xmlns="http://www.w3.org/2000/svg"
   xmlns:sodipodi="http://sodipodi.sourceforge.net/DTD/sodipodi-0.dtd"
   xmlns:inkscape="http://www.inkscape.org/namespaces/inkscape"
   width="1000"
   height="1000"
   viewBox="0 0 264.58333 264.58333"
   version="1.1"
   id="svg8"
   inkscape:version="0.92.3 (2405546, 2018-03-11)"
   sodipodi:docname="github.svg"
   inkscape:export-filename="/home/batnight99/Documentos/servergit/batnight99.github.io/img/github.png"
   inkscape:export-xdpi="90"
   inkscape:export-ydpi="90">
  <defs
     id="defs2" />
  <sodipodi:namedview
     id="base"
     pagecolor="#ffffff"
     bordercolor="#666666"
     borderopacity="1.0"
     inkscape:pageopacity="0.0"
     inkscape:pageshadow="2"
     inkscape:zoom="0.55"
     inkscape:cx="500"
     inkscape:cy="500"
     inkscape:document-units="mm"
     inkscape:current-layer="layer1"
     showgrid="false"
     units="px"
     inkscape:window-width="1366"
     inkscape:window-height="741"
     inkscape:window-x="0"
     inkscape:window-y="0"
     inkscape:window-maximized="1" />
  <metadata
     id="metadata5">
    <rdf:RDF>
      <cc:Work
         rdf:about="">
        <dc:format>image/svg+xml</dc:format>
        <dc:type
           rdf:resource="http://purl.org/dc/dcmitype/StillImage" />
        <dc:title />
      </cc:Work>
    </rdf:RDF>
  </metadata>
  <g
     inkscape:label="Camada 1"
     inkscape:groupmode="layer"
     id="layer1"
     transform="translate(0,-32.41668)">
    <path
       style="fill:#4d4d4d;stroke-width:0.51708192;fill-opacity:1"
       d="m 84.461423,291.5541 c -18.4019,-7.20615 -32.12736,-16.09846 -45.51972,-29.49081 -22.04403,-22.04404 -35.4470701,-49.9517 -38.52378012,-80.21379 -0.8112,-7.97879 -0.38034,-27.44666 0.76567002,-34.59491 4.54903,-28.3751 17.5814001,-53.787595 37.8471001,-73.800065 20.86911,-20.60836 45.94758,-32.89951 75.938557,-37.21805 6.16976,-0.88843 28.47473,-0.88843 34.64449,0 13.20536,1.90149 25.95587,5.46877 36.52427,10.2186 41.30236,18.56278 70.08182,56.110795 77.25984,100.799515 1.14765,7.14497 1.57928,26.60774 0.76723,34.59491 -3.07456,30.24097 -16.51614,58.22669 -38.52285,80.20564 -13.55291,13.53581 -28.13702,22.92364 -46.23712,29.76298 -6.324,2.38961 -9.49033,2.63569 -11.68642,0.90823 -2.79184,-2.19607 -2.85103,-2.72973 -2.85103,-25.7052 0,-23.18848 -0.28648,-26.32409 -2.94778,-32.26628 -0.79218,-1.76876 -2.43005,-4.43329 -3.63975,-5.92119 -2.5319,-3.11419 -2.90222,-2.78503 4.26066,-3.78687 12.03615,-1.68343 21.59633,-5.12389 30.76637,-11.07201 13.51742,-8.76801 20.80507,-23.08613 22.80372,-44.80256 1.48194,-16.10214 -1.79186,-28.91289 -10.15472,-39.73661 l -2.98068,-3.85776 0.6648,-2.34724 c 2.08265,-7.35347 2.50533,-12.70637 1.52492,-19.31186 -0.60905,-4.103465 -2.86937,-12.141465 -3.69934,-13.155385 -0.291,-0.35547 -1.60587,-0.64291 -2.92191,-0.6387 -6.50842,0.0214 -17.311,4.34129 -29.41536,11.764675 l -3.75384,2.30216 -4.51948,-1.09227 c -18.23549,-4.407135 -38.89206,-4.407135 -57.12755,0 l -4.519477,1.09227 -3.75384,-2.33238 c -10.49793,-6.522715 -23.62911,-11.742105 -29.54139,-11.742105 -3.01022,0 -3.5281,0.7397 -5.28822,7.55303 -2.31275,8.952555 -2.19679,16.905465 0.37636,25.810535 0.60038,2.07775 0.59749,2.08476 -2.54021,6.20499 -4.74969,6.23692 -7.69836,12.80989 -9.50532,21.18857 -0.93727,4.34599 -0.79014,18.88457 0.25384,25.08462 1.69332,10.05638 5.40353,19.89662 10.06219,26.68698 7.84812,11.43926 24.2429,20.01119 42.943027,22.45254 6.94907,0.90724 6.64656,0.66103 4.2783,3.48193 -3.19307,3.80335 -6.26058,10.98855 -6.26058,14.66455 0,0.60777 -0.939077,1.2398 -2.973207,2.00098 -4.28616,1.60392 -7.95786,2.19338 -13.83193,2.22059 -4.19,0.0192 -5.74209,-0.19901 -8.18244,-1.15191 -5.0189,-1.95958 -8.90746,-5.33176 -12.86423,-11.15592 -7.41601,-10.91601 -16.0258,-16.36273 -24.07902,-15.23288 -1.21431,0.17036 -2.44603,0.54791 -2.7371,0.83901 -0.74766,0.74765 0.76903,3.19704 3.07715,4.96948 1.0273,0.78888 3.09242,2.36731 4.58916,3.50758 3.86341,2.94334 6.9503,7.39122 11.05171,15.92432 2.93207,6.10023 4.07343,7.91614 6.40861,10.19599 6.08875,5.94451 14.96958,8.38444 28.36548,7.79312 4.01375,-0.1772 8.05394,-0.46727 8.97824,-0.64466 l 1.68051,-0.32253 v 13.29539 c 0,11.23437 -0.13103,13.57156 -0.84535,15.07684 -1.88946,3.9818 -6.04638,4.26853 -14.40856,0.99392 z"
       id="path826"
       inkscape:connector-curvature="0" />
  </g>
</svg>
