<?xml version="1.0" encoding="UTF-8" standalone="no"?>
<!-- Created with Inkscape (http://www.inkscape.org/) -->

<svg
   xmlns:dc="http://purl.org/dc/elements/1.1/"
   xmlns:cc="http://creativecommons.org/ns#"
   xmlns:rdf="http://www.w3.org/1999/02/22-rdf-syntax-ns#"
   xmlns:svg="http://www.w3.org/2000/svg"
   xmlns="http://www.w3.org/2000/svg"
   xmlns:sodipodi="http://sodipodi.sourceforge.net/DTD/sodipodi-0.dtd"
   xmlns:inkscape="http://www.inkscape.org/namespaces/inkscape"
   width="1000"
   height="1000"
   viewBox="0 0 264.58333 264.58333"
   version="1.1"
   id="svg8"
   inkscape:version="0.92.3 (2405546, 2018-03-11)"
   sodipodi:docname="instagram.svg"
   inkscape:export-filename="/home/batnight99/Documentos/servergit/batnight99.github.io/img/github.png"
   inkscape:export-xdpi="90"
   inkscape:export-ydpi="90">
  <defs
     id="defs2" />
  <sodipodi:namedview
     id="base"
     pagecolor="#ffffff"
     bordercolor="#666666"
     borderopacity="1.0"
     inkscape:pageopacity="0.0"
     inkscape:pageshadow="2"
     inkscape:zoom="0.55"
     inkscape:cx="500"
     inkscape:cy="500"
     inkscape:document-units="mm"
     inkscape:current-layer="layer1"
     showgrid="false"
     units="px"
     inkscape:window-width="1366"
     inkscape:window-height="741"
     inkscape:window-x="0"
     inkscape:window-y="0"
     inkscape:window-maximized="1" />
  <metadata
     id="metadata5">
    <rdf:RDF>
      <cc:Work
         rdf:about="">
        <dc:format>image/svg+xml</dc:format>
        <dc:type
           rdf:resource="http://purl.org/dc/dcmitype/StillImage" />
        <dc:title></dc:title>
      </cc:Work>
    </rdf:RDF>
  </metadata>
  <g
     inkscape:label="Camada 1"
     inkscape:groupmode="layer"
     id="layer1"
     transform="translate(0,-32.41668)">
    <path
       style="fill:#000000;stroke-width:0.37791526"
       d="M 60.073221,296.46174 C 31.804353,292.58419 9.0700748,272.50499 2.2145948,245.36028 c -2.29928446,-9.10416 -2.22990136,-6.59635 -2.22990136,-80.59855 0,-74.002188 -0.0693853,-71.494378 2.22990136,-80.598543 C 7.6784598,62.528672 23.63412,44.733409 44.578694,36.914741 49.268963,35.163848 54.702672,33.812309 59.991731,33.081027 66.295825,32.209399 197.5553,32.188863 204.189,33.058427 c 11.01717,1.444224 20.88612,5.124695 29.76372,11.099925 16.71025,11.247137 27.36558,28.530189 30.0056,48.669392 0.86437,6.593801 0.84918,137.271986 -0.0167,143.874666 -4.14208,31.58402 -28.17746,55.62341 -59.75261,59.76255 -3.71779,0.48737 -13.89792,0.5616 -72.4257,0.52813 -53.696173,-0.0308 -68.859253,-0.1431 -71.69009,-0.5314 z M 204.80754,273.83412 c 10.06525,-2.41441 17.38812,-6.39552 23.88339,-12.98428 6.77047,-6.86792 10.98874,-15.04944 12.86683,-24.95584 0.7314,-3.85791 0.70123,-138.134309 -0.0319,-142.180331 -3.13015,-17.273787 -15.31134,-31.257317 -31.73355,-36.428912 -7.02433,-2.212068 -3.61049,-2.11858 -77.30329,-2.11693 -74.312202,0.0021 -71.108429,-0.09138 -78.158193,2.270494 -6.872942,2.302644 -12.883405,6.050175 -18.100635,11.285778 -7.076331,7.101225 -11.449476,15.519561 -12.986953,24.999951 -0.862886,5.320773 -0.88144,137.25542 -0.02003,142.19533 3.643042,20.89073 20.551123,36.5717 41.573963,38.55671 0.831412,0.0785 32.037754,0.11876 69.347448,0.0894 63.83707,-0.0501 68.00245,-0.0932 70.66293,-0.73143 z m -80.29976,-43.55223 c -7.97234,-1.15727 -17.05818,-4.01583 -22.86387,-7.19337 C 81.441551,212.0315 68.779907,192.7315 66.809417,169.99077 c -1.288335,-14.86817 3.131913,-30.74983 12.078089,-43.3958 3.254036,-4.59978 10.600985,-11.94673 15.20078,-15.20076 7.006694,-4.95677 15.685224,-8.83242 23.863354,-10.65688 11.84922,-2.643439 23.59629,-2.066568 35.08874,1.72313 23.50066,7.74947 40.66917,28.17681 44.42153,52.85339 0.8139,5.35238 0.71687,14.81418 -0.2079,20.2754 -3.59132,21.20837 -17.27878,39.4308 -36.44532,48.52052 -5.21152,2.47156 -10.08181,4.13612 -15.51557,5.3029 -3.04003,0.65278 -5.3313,0.83322 -11.71537,0.92265 -4.36493,0.0612 -8.44642,0.0371 -9.06997,-0.0535 z m 16.08619,-20.38647 c 14.82809,-2.81284 27.63085,-12.93001 33.66441,-26.60274 2.46995,-5.59719 3.41104,-9.88575 3.62795,-16.5326 0.22399,-6.86401 -0.23144,-10.47444 -2.0037,-15.88469 -5.18064,-15.81509 -17.90154,-27.18791 -34.61899,-30.95029 -3.89054,-0.87559 -13.79444,-0.86663 -17.82698,0.0162 -18.3532,4.01775 -31.984354,17.64889 -36.002107,36.00211 -0.882768,4.03253 -0.891745,13.93643 -0.01618,17.82698 3.722462,16.54008 14.981487,29.26795 30.505947,34.48571 1.95805,0.6581 4.75054,1.41451 6.20551,1.68089 3.82537,0.70036 12.67085,0.67805 16.46411,-0.0416 z m 62.17791,-103.34681 c -2.82693,-0.48477 -6.31283,-2.38224 -8.32141,-4.52958 -6.86252,-7.336581 -4.76925,-19.447633 4.11746,-23.822556 9.20827,-4.533212 19.98585,0.930996 21.74345,11.023877 1.7467,10.030325 -7.40012,19.066989 -17.5395,17.328259 z"
       id="path846"
       inkscape:connector-curvature="0" />
  </g>
</svg>
