<?xml version="1.0" encoding="UTF-8" standalone="no"?>
<!-- Created with Inkscape (http://www.inkscape.org/) -->

<svg
   xmlns:dc="http://purl.org/dc/elements/1.1/"
   xmlns:cc="http://creativecommons.org/ns#"
   xmlns:rdf="http://www.w3.org/1999/02/22-rdf-syntax-ns#"
   xmlns:svg="http://www.w3.org/2000/svg"
   xmlns="http://www.w3.org/2000/svg"
   xmlns:sodipodi="http://sodipodi.sourceforge.net/DTD/sodipodi-0.dtd"
   xmlns:inkscape="http://www.inkscape.org/namespaces/inkscape"
   width="1000"
   height="1000"
   viewBox="0 0 264.58333 264.58333"
   version="1.1"
   id="svg8"
   inkscape:version="0.92.3 (2405546, 2018-03-11)"
   sodipodi:docname="menu-de-hamburguer.svg"
   inkscape:export-filename="/home/batnight99/Documentos/servergit/batnight99.github.io/img/github.png"
   inkscape:export-xdpi="90"
   inkscape:export-ydpi="90">
  <defs
     id="defs2" />
  <sodipodi:namedview
     id="base"
     pagecolor="#ffffff"
     bordercolor="#666666"
     borderopacity="1.0"
     inkscape:pageopacity="0.0"
     inkscape:pageshadow="2"
     inkscape:zoom="0.55"
     inkscape:cx="500"
     inkscape:cy="500"
     inkscape:document-units="mm"
     inkscape:current-layer="layer1"
     showgrid="false"
     units="px"
     inkscape:window-width="1366"
     inkscape:window-height="741"
     inkscape:window-x="0"
     inkscape:window-y="0"
     inkscape:window-maximized="1"
     showguides="false" />
  <metadata
     id="metadata5">
    <rdf:RDF>
      <cc:Work
         rdf:about="">
        <dc:format>image/svg+xml</dc:format>
        <dc:type
           rdf:resource="http://purl.org/dc/dcmitype/StillImage" />
        <dc:title></dc:title>
      </cc:Work>
    </rdf:RDF>
  </metadata>
  <g
     inkscape:label="Camada 1"
     inkscape:groupmode="layer"
     id="layer1"
     transform="translate(0,-32.41668)">
    <g
       id="g966"
       style="fill:#dfdfdf;fill-opacity:1">
      <path
         style="fill:#dfdfdf;fill-opacity:1;stroke-width:0.53674489"
         d="m 23.806015,249.84925 c -4.447982,-1.59575 -7.904828,-4.6511 -10.264377,-9.07223 -1.010478,-1.89336 -1.209732,-3.10525 -1.210972,-7.36532 -0.0013,-4.63948 0.140659,-5.35566 1.575515,-7.94573 1.791087,-3.23312 4.559363,-5.9332 7.926039,-7.73081 l 2.305351,-1.23093 h 108.154099 108.1541 l 2.30535,1.23093 c 3.36668,1.79761 6.13495,4.49769 7.92604,7.73081 1.4344,2.58925 1.57699,3.30772 1.57699,7.94573 0,4.638 -0.14259,5.35648 -1.57699,7.94573 -1.79109,3.23311 -4.55936,5.9332 -7.92604,7.73081 l -2.30535,1.23092 -107.34898,0.11336 c -86.859867,0.0917 -107.719603,-0.0196 -109.290775,-0.58327 z m 0,-68.70335 c -4.447982,-1.59574 -7.904828,-4.6511 -10.264377,-9.07223 -1.010478,-1.89336 -1.209732,-3.10525 -1.210972,-7.36532 -0.0013,-4.63948 0.140659,-5.35566 1.575515,-7.94573 1.791087,-3.23312 4.559363,-5.9332 7.926039,-7.73081 l 2.305351,-1.23092 h 108.154099 108.1541 l 2.30535,1.23092 c 3.36668,1.79761 6.13495,4.49769 7.92604,7.73081 1.4344,2.58925 1.57699,3.30772 1.57699,7.94573 0,4.63801 -0.14259,5.35648 -1.57699,7.94573 -1.79109,3.23312 -4.55936,5.9332 -7.92604,7.73081 l -2.30535,1.23092 -107.34898,0.11336 c -86.859867,0.0917 -107.719603,-0.0196 -109.290775,-0.58327 z m 0,-68.70335 c -4.447982,-1.59574 -7.904828,-4.6511 -10.264377,-9.07223 -1.010478,-1.89335 -1.209732,-3.10525 -1.210972,-7.365318 -0.0013,-4.639478 0.140659,-5.355656 1.575515,-7.945729 1.791087,-3.233116 4.559363,-5.9332 7.926039,-7.730811 l 2.305351,-1.230924 h 108.154099 108.1541 l 2.30535,1.230924 c 3.36668,1.797611 6.13495,4.497695 7.92604,7.730811 1.4344,2.589252 1.57699,3.307722 1.57699,7.94573 0,4.638007 -0.14259,5.356477 -1.57699,7.945727 -1.79109,3.23312 -4.55936,5.9332 -7.92604,7.73081 l -2.30535,1.23093 -107.34898,0.11335 c -86.859867,0.0917 -107.719603,-0.0196 -109.290775,-0.58327 z"
         id="path982"
         inkscape:connector-curvature="0" />
      <path
         style="fill:#dfdfdf;fill-opacity:1;stroke-width:0.53674489"
         d="m 22.814233,249.40542 c -4.014174,-1.54102 -8.075305,-5.65561 -9.597386,-9.72374 -3.340772,-8.92901 1.085399,-19.04801 9.749818,-22.28978 l 3.089783,-1.15604 H 132.29167 238.52689 l 3.08979,1.15604 c 6.39443,2.39246 10.90585,9.01936 10.90585,16.0198 0,7.00043 -4.51142,13.62733 -10.90585,16.0198 l -3.08979,1.15603 -106.38954,-0.028 -106.389544,-0.028 z m 0,-68.70335 c -4.014174,-1.54102 -8.075305,-5.65561 -9.597386,-9.72373 -3.340772,-8.92902 1.085399,-19.04802 9.749818,-22.28979 l 3.089783,-1.15604 H 132.29167 238.52689 l 3.08979,1.15604 c 6.39443,2.39246 10.90585,9.01936 10.90585,16.0198 0,7.00044 -4.51142,13.62734 -10.90585,16.0198 l -3.08979,1.15604 -106.38954,-0.028 -106.389544,-0.028 z m 0,-68.70335 c -4.014174,-1.54101 -8.075305,-5.65561 -9.597386,-9.72373 -3.340772,-8.929016 1.085399,-19.048016 9.749818,-22.289789 l 3.089783,-1.156035 H 132.29167 238.52689 l 3.08979,1.156035 c 6.39443,2.392466 10.90585,9.019365 10.90585,16.019802 0,7.000437 -4.51142,13.627337 -10.90585,16.019797 l -3.08979,1.15604 -106.38954,-0.028 -106.389544,-0.028 z"
         id="path980"
         inkscape:connector-curvature="0" />
      <path
         style="fill:#dfdfdf;fill-opacity:1;stroke-width:0.53674489"
         d="m 23.456092,249.57817 c -3.868489,-1.34007 -7.561263,-4.59919 -9.516674,-8.3991 -1.422513,-2.76435 -1.609623,-3.66544 -1.604992,-7.72942 0.004,-3.54891 0.266231,-5.16731 1.1472,-7.08133 1.636924,-3.55644 4.652188,-6.65217 8.154422,-8.37205 l 3.038268,-1.49204 h 107.655304 107.6553 l 3.15137,1.61167 c 8.0367,4.11012 11.55862,14.11564 7.88886,22.41173 -1.39994,3.16479 -5.34613,7.12539 -8.59538,8.62677 l -2.52075,1.16476 -106.81223,0.11941 c -102.190249,0.11423 -106.934633,0.077 -109.640698,-0.8604 z m 0,-68.70335 c -3.868489,-1.34007 -7.561263,-4.59919 -9.516674,-8.3991 -1.422513,-2.76434 -1.609623,-3.66544 -1.604992,-7.72942 0.0041,-3.57034 0.264844,-5.16464 1.164759,-7.12103 1.482777,-3.2235 5.423724,-7.16684 8.654386,-8.65963 l 2.520745,-1.16475 h 107.655304 107.6553 l 3.15137,1.61166 c 8.0367,4.11012 11.55862,14.11564 7.88886,22.41173 -1.39994,3.1648 -5.34613,7.12539 -8.59538,8.62678 l -2.52075,1.16475 -106.81223,0.11941 c -102.190249,0.11423 -106.934633,0.077 -109.640698,-0.8604 z M 23.962225,112.387 C 14.439245,109.40402 9.4590033,98.155954 13.558186,88.889075 c 1.39994,-3.164798 5.346127,-7.125396 8.595385,-8.626779 l 2.520745,-1.164758 h 107.655304 107.6553 l 3.15137,1.611666 c 8.0367,4.110121 11.55862,14.115641 7.88886,22.411726 -1.39994,3.1648 -5.34613,7.1254 -8.59538,8.62678 l -2.52075,1.16476 -106.81223,0.10099 C 44.509459,113.09721 25.888303,112.99032 23.962225,112.387 Z"
         id="path978"
         inkscape:connector-curvature="0" />
      <path
         style="fill:#dfdfdf;fill-opacity:1;stroke-width:0.53674489"
         d="m 24.081911,249.82903 c -3.381683,-1.06258 -7.04157,-3.86198 -9.060978,-6.93063 -5.7982188,-8.81087 -2.578126,-20.3752 6.983657,-25.08043 l 2.669726,-1.31374 H 132.29167 239.90902 l 2.66973,1.31374 c 3.40516,1.67564 6.68603,4.95651 8.36167,8.36167 1.88038,3.82124 1.867,10.61207 -0.0286,14.47811 -1.67349,3.41318 -4.88873,6.63352 -8.31914,8.33236 l -2.68372,1.32905 -106.81224,0.10099 c -85.918177,0.0812 -107.243099,-0.0344 -109.01487,-0.59112 z m 0,-68.70334 c -3.381683,-1.06259 -7.04157,-3.86199 -9.060978,-6.93064 -5.7982188,-8.81086 -2.578126,-20.37519 6.983657,-25.08043 l 2.669726,-1.31373 H 132.29167 239.90902 l 2.66973,1.31373 c 3.40516,1.67564 6.68603,4.95651 8.36167,8.36167 1.88038,3.82124 1.867,10.61207 -0.0286,14.47812 -1.67349,3.41317 -4.88873,6.63351 -8.31914,8.33235 l -2.68372,1.32905 -106.81224,0.10099 C 47.178565,181.798 25.853642,181.6824 24.081871,181.12569 Z m -0.20982,-68.8374 C 11.726813,108.02526 8.1448178,92.915064 17.145762,83.914115 18.349768,82.71011 20.53624,81.133836 22.00459,80.411277 l 2.669726,-1.313739 H 132.29167 239.90902 l 2.66973,1.313739 c 3.40516,1.675635 6.68603,4.95651 8.36167,8.361668 1.88038,3.821237 1.867,10.612069 -0.0286,14.478115 -1.67349,3.41317 -4.88873,6.63352 -8.31914,8.33235 l -2.68372,1.32906 -106.81224,0.1113 c -96.087251,0.10013 -107.054465,0.0263 -109.224691,-0.73548 z"
         id="path976"
         inkscape:connector-curvature="0" />
      <path
         style="fill:#dfdfdf;fill-opacity:1;stroke-width:0.53674489"
         d="m 25.177806,250.08759 c -2.563114,-0.61864 -7.164816,-3.31365 -8.628794,-5.05349 -0.729957,-0.86751 -1.968244,-2.81091 -2.751748,-4.31868 -1.210516,-2.3295 -1.426311,-3.42688 -1.436254,-7.30372 -0.01071,-4.17794 0.141963,-4.8473 1.812141,-7.94457 2.024417,-3.7542 3.694194,-5.37164 7.75977,-7.51658 l 2.741395,-1.44632 H 132.29167 239.90902 l 2.74139,1.44632 c 4.06558,2.14494 5.73536,3.76238 7.75978,7.51658 1.66564,3.08886 1.82384,3.77798 1.82384,7.94457 0,4.16577 -0.15839,4.85604 -1.82217,7.94143 -1.89949,3.52249 -4.00796,5.52653 -8.08749,7.68693 l -2.41535,1.2791 -106.54386,0.0826 c -58.599126,0.0454 -107.283434,-0.096 -108.187354,-0.31413 z m 0,-68.70335 c -2.563114,-0.61864 -7.164816,-3.31365 -8.628794,-5.05349 -0.729957,-0.8675 -1.968244,-2.81091 -2.751748,-4.31868 -1.210516,-2.3295 -1.426311,-3.42688 -1.436254,-7.30372 -0.01071,-4.17794 0.141963,-4.84729 1.812141,-7.94457 2.024417,-3.7542 3.694194,-5.37164 7.75977,-7.51658 l 2.741395,-1.44631 H 132.29167 239.90902 l 2.74139,1.44631 c 4.06558,2.14494 5.73536,3.76238 7.75978,7.51658 1.66564,3.08886 1.82384,3.77798 1.82384,7.94457 0,4.16577 -0.15839,4.85604 -1.82217,7.94143 -1.89949,3.52249 -4.00796,5.52653 -8.08749,7.68693 l -2.41535,1.2791 -106.54386,0.0826 c -58.599126,0.0454 -107.283434,-0.096 -108.187354,-0.31413 z m 0,-68.70335 c -2.563114,-0.61864 -7.164816,-3.31364 -8.628794,-5.05349 -0.729957,-0.8675 -1.968244,-2.8109 -2.751748,-4.31867 -1.210516,-2.3295 -1.426311,-3.426883 -1.436254,-7.303728 -0.01071,-4.177941 0.141963,-4.847294 1.812141,-7.94457 2.024417,-3.754198 3.694194,-5.371641 7.75977,-7.516577 l 2.741395,-1.446317 H 132.29167 239.90902 l 2.74139,1.446317 c 4.06558,2.144936 5.73536,3.762379 7.75978,7.516577 1.66564,3.088859 1.82384,3.777981 1.82384,7.944571 0,4.165777 -0.15839,4.856047 -1.82217,7.941427 -1.89949,3.52249 -4.00796,5.52653 -8.08749,7.68694 l -2.41535,1.2791 -106.54386,0.0825 c -58.599126,0.0454 -107.283434,-0.096 -108.187354,-0.31413 z"
         id="path974"
         inkscape:connector-curvature="0" />
      <path
         style="fill:#dfdfdf;fill-opacity:1;stroke-width:0.53674489"
         d="m 24.030135,249.59081 c -5.785994,-2.00495 -9.541461,-5.95529 -11.250557,-11.83438 -2.241701,-7.71118 1.831792,-16.28141 9.432967,-19.84602 l 2.998516,-1.40618 H 132.29167 239.37228 l 2.99851,1.40618 c 6.31114,2.95964 9.87632,8.55535 9.87632,15.50129 0,6.94594 -3.56518,12.54164 -9.87632,15.50129 l -2.99851,1.40617 -106.27549,0.11942 C 31.929808,250.55225 26.687129,250.5115 24.030135,249.59081 Z m 0,-68.70335 c -5.785994,-2.00494 -9.541461,-5.95529 -11.250557,-11.83438 -2.241701,-7.71118 1.831792,-16.28141 9.432967,-19.84602 l 2.998516,-1.40617 H 132.29167 239.37228 l 2.99851,1.40617 c 6.31114,2.95964 9.87632,8.55535 9.87632,15.50129 0,6.94594 -3.56518,12.54165 -9.87632,15.50129 l -2.99851,1.40617 -106.27549,0.11942 c -101.166982,0.11368 -106.409661,0.0729 -109.066655,-0.84777 z m 0,-68.70335 c -5.785994,-2.00494 -9.541461,-5.95529 -11.250557,-11.83438 -2.241701,-7.711175 1.831792,-16.281403 9.432967,-19.84602 l 2.998516,-1.406172 H 132.29167 239.37228 l 2.99851,1.406172 c 6.31114,2.959647 9.87632,8.555352 9.87632,15.501293 0,6.945937 -3.56518,12.541647 -9.87632,15.501287 l -2.99851,1.40618 -106.27549,0.11941 c -101.166982,0.11368 -106.409661,0.0729 -109.066655,-0.84777 z"
         id="path972"
         inkscape:connector-curvature="0" />
      <path
         style="fill:#dfdfdf;fill-opacity:1;stroke-width:0.53674489"
         d="m 25.33691,250.00686 c -4.992115,-1.18435 -9.316529,-4.77392 -11.586334,-9.61748 -1.101354,-2.35018 -1.383423,-3.77288 -1.383423,-6.97768 0,-6.89859 3.576789,-12.50508 9.891811,-15.50506 l 2.952097,-1.40241 H 132.29167 239.37228 l 2.95209,1.40241 c 3.76658,1.78933 6.75378,4.78319 8.50839,8.52737 1.85792,3.96464 1.92171,9.72368 0.15213,13.73632 -1.50015,3.40173 -5.3986,7.29461 -8.92889,8.91614 l -2.68372,1.23269 -106.00712,0.0836 c -60.698867,0.0479 -106.870966,-0.12134 -108.02825,-0.3959 z m 0,-68.70335 c -4.992115,-1.18435 -9.316529,-4.77392 -11.586334,-9.61748 -1.101354,-2.35018 -1.383423,-3.77288 -1.383423,-6.97768 0,-6.89859 3.576789,-12.50508 9.891811,-15.50506 l 2.952097,-1.4024 H 132.29167 239.37228 l 2.95209,1.4024 c 3.76658,1.78933 6.75378,4.78319 8.50839,8.52738 1.85792,3.96463 1.92171,9.72367 0.15213,13.73631 -1.50015,3.40173 -5.3986,7.29461 -8.92889,8.91614 l -2.68372,1.23269 -106.00712,0.0836 c -60.698867,0.0479 -106.870966,-0.12134 -108.02825,-0.3959 z m 0,-68.70335 c -4.904329,-1.16352 -9.603873,-5.11819 -11.747884,-9.88585 -1.76996,-3.935871 -1.701797,-9.71078 0.16155,-13.686991 1.754612,-3.744182 4.741806,-6.738043 8.508388,-8.527373 l 2.952097,-1.402408 H 132.29167 239.37228 l 2.95209,1.402408 c 3.76658,1.78933 6.75378,4.783191 8.50839,8.527373 1.85792,3.964634 1.92171,9.723676 0.15213,13.736321 -1.50015,3.40172 -5.3986,7.2946 -8.92889,8.91613 l -2.68372,1.2327 -106.00712,0.0836 c -60.698867,0.0479 -106.870966,-0.12134 -108.02825,-0.3959 z"
         id="path970"
         inkscape:connector-curvature="0" />
      <path
         style="fill:#dfdfdf;fill-opacity:1;stroke-width:0.53674489"
         d="m 24.916152,249.85986 c -4.8153,-1.30533 -9.261728,-5.17838 -11.413281,-9.94153 -1.558058,-3.44925 -1.552116,-9.57695 0.01264,-13.04186 1.594653,-3.5311 5.116399,-7.14131 8.667494,-8.8852 l 3.028051,-1.48704 H 132.29167 239.37228 l 2.50964,1.15985 c 3.55699,1.64389 7.15226,5.16333 8.87814,8.69089 2.10655,4.30564 2.10655,9.80781 0,14.11346 -1.72588,3.52755 -5.32115,7.047 -8.87814,8.69089 l -2.50964,1.15984 -106.00712,0.10132 c -82.62203,0.079 -106.545798,-0.0447 -108.449008,-0.56062 z m 0,-68.70335 c -4.8153,-1.30532 -9.261728,-5.17838 -11.413281,-9.94152 -1.558058,-3.44926 -1.552116,-9.57696 0.01264,-13.04187 1.594653,-3.5311 5.116399,-7.1413 8.667494,-8.8852 l 3.028051,-1.48703 H 132.29167 239.37228 l 2.50964,1.15984 c 3.55699,1.64389 7.15226,5.16333 8.87814,8.69089 2.10655,4.30564 2.10655,9.80782 0,14.11346 -1.72588,3.52756 -5.32115,7.047 -8.87814,8.69089 l -2.50964,1.15984 -106.00712,0.10133 c -82.62203,0.079 -106.545798,-0.0447 -108.449008,-0.56063 z m 0.642057,-68.54938 c -4.798939,-0.95035 -9.82601,-5.16016 -12.055338,-10.09549 -1.558058,-3.449253 -1.552116,-9.576953 0.01264,-13.041866 1.594653,-3.5311 5.116399,-7.141305 8.667494,-8.885201 l 3.028051,-1.487035 H 132.29167 239.37228 l 2.50964,1.159847 c 3.55699,1.643888 7.15226,5.16333 8.87814,8.690887 2.10655,4.305645 2.10655,9.807816 0,14.113458 -1.72588,3.52756 -5.32115,7.047 -8.87814,8.69089 l -2.50964,1.15985 -105.73875,0.0787 c -58.156309,0.0433 -106.790204,-0.12953 -108.075321,-0.38403 z"
         id="path968"
         inkscape:connector-curvature="0" />
    </g>
  </g>
</svg>
