<?xml version="1.0" encoding="UTF-8" standalone="no"?>
<!-- Created with Inkscape (http://www.inkscape.org/) -->

<svg
   xmlns:dc="http://purl.org/dc/elements/1.1/"
   xmlns:cc="http://creativecommons.org/ns#"
   xmlns:rdf="http://www.w3.org/1999/02/22-rdf-syntax-ns#"
   xmlns:svg="http://www.w3.org/2000/svg"
   xmlns="http://www.w3.org/2000/svg"
   xmlns:sodipodi="http://sodipodi.sourceforge.net/DTD/sodipodi-0.dtd"
   xmlns:inkscape="http://www.inkscape.org/namespaces/inkscape"
   width="1000"
   height="1000"
   viewBox="0 0 264.58333 264.58333"
   version="1.1"
   id="svg8"
   inkscape:version="0.92.3 (2405546, 2018-03-11)"
   sodipodi:docname="stackoverflow.svg"
   inkscape:export-filename="/home/batnight99/Documentos/servergit/batnight99.github.io/img/github.png"
   inkscape:export-xdpi="90"
   inkscape:export-ydpi="90">
  <defs
     id="defs2" />
  <sodipodi:namedview
     id="base"
     pagecolor="#ffffff"
     bordercolor="#666666"
     borderopacity="1.0"
     inkscape:pageopacity="0.0"
     inkscape:pageshadow="2"
     inkscape:zoom="0.55"
     inkscape:cx="132.72727"
     inkscape:cy="500"
     inkscape:document-units="mm"
     inkscape:current-layer="layer1"
     showgrid="false"
     units="px"
     inkscape:window-width="1366"
     inkscape:window-height="741"
     inkscape:window-x="0"
     inkscape:window-y="0"
     inkscape:window-maximized="1" />
  <metadata
     id="metadata5">
    <rdf:RDF>
      <cc:Work
         rdf:about="">
        <dc:format>image/svg+xml</dc:format>
        <dc:type
           rdf:resource="http://purl.org/dc/dcmitype/StillImage" />
        <dc:title />
      </cc:Work>
    </rdf:RDF>
  </metadata>
  <g
     inkscape:label="Camada 1"
     inkscape:groupmode="layer"
     id="layer1"
     transform="translate(0,-32.41668)">
    <g
       id="g920"
       style="fill:#4d4d4d;fill-opacity:1">
      <path
         style="fill:#4d4d4d;fill-opacity:1;stroke-width:0.51676434"
         d="M -5.0862632e-6,162.68789 V 30.396219 H 132.29166 264.58333 V 162.68789 294.97956 H 132.29166 -5.0862632e-6 Z M 190.16927,228.30277 v -46.00621 l -7.36389,0.14337 -7.36389,0.14339 -0.13249,38.62813 -0.13247,38.62813 H 117.30221 59.427894 v -38.75732 -38.75733 h -7.493083 -7.493083 v 45.99203 45.99203 h 72.863772 72.86377 z m -38.58147,16.21111 8.60914,-0.33953 v -9.22061 -9.2206 H 116.01359 71.830238 v 9.56014 9.56014 h 35.574202 c 19.56582,0 39.44833,-0.15279 44.18336,-0.33954 z m 9.97659,-33.46536 c 0.45007,-5.02705 0.73346,-9.22121 0.62977,-9.32035 -0.34779,-0.33249 -87.259047,-8.21096 -87.535005,-7.93501 -0.37563,0.37563 -2.023664,17.93132 -1.712505,18.24248 0.24073,0.24073 87.35612,8.43577 87.65405,8.24572 0.08,-0.051 0.51361,-4.20579 0.96369,-9.23284 z m 4.2397,-24.84785 c 2.05791,-7.87834 2.39951,-9.56014 1.94183,-9.56014 -0.21454,0 -82.680381,-22.06933 -84.067919,-22.49808 -0.661557,-0.20441 -1.263634,1.44968 -3.232708,8.8812 -1.330854,5.02282 -2.360285,9.18065 -2.287617,9.23962 0.558431,0.45321 84.949734,22.76383 85.184064,22.52022 0.16643,-0.17303 1.27449,-4.0353 2.46235,-8.58282 z m 8.85415,-22.77963 c 2.61099,-4.42851 4.66926,-8.11446 4.57393,-8.191 -0.98514,-0.791 -75.96865,-44.8107 -76.08903,-44.66871 -1.02886,1.21347 -9.119564,15.61208 -8.990368,15.99968 0.162492,0.48747 74.688718,44.84456 75.422878,44.89077 0.18444,0.0116 2.4716,-3.60223 5.08259,-8.03074 z m 20.42029,-19.26588 c 1.4211,-0.99851 2.66205,-1.86934 2.75766,-1.93518 0.21555,-0.14842 -48.94363,-72.448853 -49.48946,-72.786191 -0.32721,-0.202231 -13.77,8.687338 -15.20992,10.058166 -0.24573,0.233931 10.76166,16.837192 24.46085,36.896135 l 24.90762,36.4708 4.99471,-3.44413 c 2.7471,-1.89427 6.15744,-4.26109 7.57854,-5.2596 z m 17.05322,-5.02107 c 4.26331,-0.73661 7.77772,-1.37754 7.8098,-1.42428 0.0321,-0.0468 -3.34565,-19.61868 -7.50609,-43.493196 -6.10108,-35.010938 -7.71185,-43.390534 -8.32655,-43.316864 -0.41918,0.05024 -4.54099,0.731816 -9.15957,1.514621 -7.49776,1.2708 -8.39742,1.531344 -8.39742,2.43194 0,1.116972 14.36462,84.436989 14.74609,85.532679 0.15758,0.4526 0.72437,0.58596 1.66075,0.39074 0.78184,-0.163 4.90969,-0.89904 9.17299,-1.63564 z"
         id="path928"
         inkscape:connector-curvature="0" />
      <path
         style="fill:#4d4d4d;fill-opacity:1;stroke-width:0.51676434"
         d="M -5.0862632e-6,162.68789 V 30.396219 H 132.29166 264.58333 V 162.68789 294.97956 H 132.29166 -5.0862632e-6 Z M 190.4135,272.11274 c 0.17523,-1.49216 0.2501,-22.24671 0.16638,-46.12122 l -0.15223,-43.4082 -7.62227,-0.14301 -7.62228,-0.14301 v 38.51276 38.51276 H 117.3055 59.427894 V 220.81006 182.2973 l -7.622274,0.14301 -7.622274,0.14301 -0.133373,45.47526 c -0.07335,25.01139 -0.02252,45.76594 0.112972,46.12121 0.195467,0.51255 15.290802,0.64596 73.089155,0.64596 h 72.8428 z m -30.21656,-36.81946 v -9.56014 H 116.01359 71.830238 v 9.56014 9.56014 h 44.183352 44.18335 z m 0.74253,-15.89051 c 0.42008,-1.98986 1.48578,-17.45179 1.2211,-17.71648 -0.30388,-0.30387 -87.39956,-8.42325 -87.699103,-8.17563 -0.33491,0.27685 -1.926042,18.78394 -1.617224,18.81056 0.152848,0.0132 19.695325,1.84823 43.427727,4.07791 23.7324,2.22969 43.43607,4.07926 43.78593,4.11017 0.34986,0.0309 0.74657,-0.46703 0.88157,-1.10653 z m 5.02472,-33.50274 c 1.32456,-4.95061 2.3702,-9.0407 2.32364,-9.08906 -0.19546,-0.20302 -85.269283,-22.89974 -85.387663,-22.78045 -0.280226,0.28238 -4.933554,18.06658 -4.770009,18.23013 0.335954,0.33595 84.397612,22.8595 84.908982,22.75058 0.28422,-0.0605 1.6005,-4.16057 2.92505,-9.1112 z m 8.85311,-22.61023 c 2.55119,-4.32864 4.5492,-7.95591 4.44003,-8.06058 -0.4822,-0.46233 -75.56148,-44.73453 -75.86333,-44.73453 -0.36661,0 -9.991559,16.07373 -9.749119,16.28111 1.138313,0.97366 75.728219,44.64803 76.064669,44.53788 0.25807,-0.0845 2.55656,-3.69524 5.10775,-8.02388 z m 22.9544,-21.46122 c -0.35446,-1.06337 -49.21523,-72.651219 -49.59454,-72.662923 -0.91917,-0.02836 -15.10536,10.285463 -15.05536,10.945749 0.044,0.581314 30.94012,46.206204 46.0389,67.986544 l 3.31969,4.78873 7.73324,-5.26627 c 4.2533,-2.89644 7.65442,-5.50276 7.55807,-5.79183 z m 13.27338,-2.38536 c 4.80252,-0.84692 8.79945,-1.60746 8.88208,-1.69009 0.14105,-0.14104 -14.78909,-86.807345 -14.9986,-87.063716 -0.0535,-0.06545 -4.34265,0.615527 -9.53149,1.513276 -7.84368,1.357077 -9.39854,1.769198 -9.22248,2.444435 0.11648,0.44669 3.54755,20.055176 7.6246,43.574413 4.38251,25.281272 7.63792,42.762102 7.96344,42.761902 0.30283,-2e-4 4.47993,-0.69329 9.28245,-1.54022 z"
         id="path926"
         inkscape:connector-curvature="0" />
      <path
         style="fill:#4d4d4d;fill-opacity:1;stroke-width:0.51676434"
         d="M -5.0862632e-6,162.68789 V 30.396219 H 132.29166 264.58333 V 162.68789 294.97956 H 132.29166 -5.0862632e-6 Z M 190.55962,228.44615 l 0.13197,-46.12122 h -7.75425 -7.75424 v 38.49895 38.49894 H 117.3055 59.427894 v -38.49894 -38.49895 h -7.751465 -7.751466 v 46.25219 46.25218 l 73.251347,-0.13096 73.25134,-0.13097 z m -30.1043,6.58875 v -9.56014 l -7.10551,0.009 c -3.90803,0.005 -23.84867,0.0629 -44.31254,0.12919 l -37.207032,0.12056 v 9.56302 9.56303 l 44.312542,-0.13208 44.31254,-0.13207 z m 1.34056,-23.77116 c 0.45308,-4.97386 0.64163,-9.25015 0.41899,-9.50288 -0.44365,-0.50362 -87.371235,-8.66765 -87.79662,-8.24564 -0.354774,0.35196 -2.05266,18.45613 -1.758482,18.75031 0.313185,0.31318 84.794002,8.21979 86.762022,8.12011 l 1.5503,-0.0785 z m 4.21856,-25.16582 c 1.32962,-5.03037 2.33504,-9.22857 2.23427,-9.32934 -0.38954,-0.38954 -85.163231,-22.92437 -85.389166,-22.69843 -0.464979,0.46498 -4.976213,17.94367 -4.702018,18.21787 0.281357,0.28135 83.908174,22.85904 84.902134,22.92199 0.29551,0.0187 1.62516,-4.08172 2.95478,-9.11209 z m 8.6088,-22.27553 c 2.58169,-4.34988 4.69398,-8.09768 4.69398,-8.32844 0,-0.45559 -75.14032,-44.99926 -75.90885,-44.99926 -0.50653,0 -10.086968,15.97902 -9.770295,16.29568 0.338848,0.33886 76.115685,45.10935 76.205095,45.02353 0.0473,-0.0454 2.19838,-3.64163 4.78007,-7.99151 z m 16.00967,-16.37898 c 4.0083,-2.74033 7.28783,-5.16139 7.28783,-5.38013 0,-0.6025 -49.07442,-72.626585 -49.6144,-72.81658 -0.25827,-0.09088 -3.95773,2.233454 -8.22102,5.165175 -6.91395,4.754494 -7.68393,5.42948 -7.12659,6.247422 38.61374,56.669373 49.3093,72.127333 49.79353,71.965113 0.32606,-0.10923 3.87235,-2.44068 7.88065,-5.181 z m 20.85434,-7.94811 c 4.47726,-0.7935 8.26184,-1.5641 8.41019,-1.71244 0.26962,-0.26963 -14.6023,-86.748623 -14.98393,-87.130247 -0.20911,-0.209112 -18.44156,2.905721 -18.73685,3.201004 -0.0916,0.09162 3.21095,19.605802 7.33904,43.364851 4.12809,23.759052 7.50562,43.325862 7.50562,43.481792 0,0.51223 2.21727,0.25695 10.46593,-1.20496 z"
         id="path924"
         inkscape:connector-curvature="0" />
      <path
         style="fill:#4d4d4d;fill-opacity:1;stroke-width:0.51676434"
         d="M -5.0862632e-6,162.68789 V 30.396219 H 132.29166 264.58333 V 162.68789 294.97956 H 132.29166 -5.0862632e-6 Z M 190.68603,228.57534 v -46.25041 h -7.75146 -7.75147 v 38.49895 38.49894 H 117.3055 59.427894 v -38.49894 -38.49895 h -7.751465 -7.751466 v 46.25041 46.25041 h 73.380537 73.38053 z m -29.97233,6.37726 v -9.90082 l -11.23962,0.33942 c -6.18179,0.18667 -26.18057,0.33997 -44.44173,0.34067 l -33.202112,0.001 v 9.56014 9.56014 h 44.441732 44.44173 z m 1.13241,-23.81805 c 0.44115,-5.18703 0.72624,-9.51725 0.63354,-9.62272 -0.12094,-0.13759 -85.955936,-8.25039 -88.08205,-8.32518 -0.363027,-0.0128 -2.063202,18.7535 -1.729274,19.08743 0.247349,0.24735 82.728424,8.08707 86.531054,8.22467 l 1.84464,0.0667 z m 4.26229,-25.00722 c 1.69018,-6.31811 2.2626,-9.22562 1.86473,-9.47152 -1.45747,-0.90077 -84.860568,-22.86697 -85.227781,-22.44678 -0.597844,0.6841 -4.844521,17.13049 -4.607176,17.84252 0.175762,0.5273 82.533387,23.03646 84.699417,23.14919 0.64923,0.0338 1.36766,-1.95918 3.27081,-9.07341 z m 9.02953,-22.86615 c 2.59764,-4.37432 4.65879,-8.00671 4.58033,-8.07198 -0.69488,-0.57801 -76.52885,-45.21459 -76.6245,-45.10189 -1.00036,1.17856 -9.547013,16.20592 -9.425051,16.5718 0.272087,0.81627 75.999881,45.37053 76.390361,44.94408 0.19574,-0.21378 2.48123,-3.96768 5.07886,-8.34201 z m 14.4211,-14.87965 c 3.60417,-2.46832 7.07171,-4.88179 7.70565,-5.36327 l 1.15263,-0.87542 -24.57126,-36.10708 C 160.33186,86.176872 149.08898,69.605958 148.86186,69.211507 c -0.31624,-0.549256 -2.3107,0.581791 -8.51784,4.830416 -4.45771,3.051181 -8.03496,5.714722 -7.94945,5.918979 0.55174,1.317929 49.81401,72.908468 50.16916,72.908468 0.24325,0 3.39113,-2.01953 6.9953,-4.48784 z m 30.4225,-10.79328 c 0.20628,-0.61883 -14.66234,-86.529954 -15.0413,-86.908921 -0.28259,-0.282587 -18.34679,2.75751 -18.74374,3.154459 -0.13296,0.132967 3.14823,19.752301 7.29154,43.598522 4.14331,23.84622 7.53329,43.48354 7.53329,43.63849 0,0.50434 18.78114,-2.94531 18.96021,-3.48255 z"
         id="path922"
         inkscape:connector-curvature="0" />
    </g>
  </g>
</svg>
